<svg xmlns="http://www.w3.org/2000/svg" xmlns:xlink="http://www.w3.org/1999/xlink" width="500" zoomAndPan="magnify" viewBox="0 0 375 374.999991" height="500" preserveAspectRatio="xMidYMid meet" version="1.0"><defs><filter x="0%" y="0%" width="100%" height="100%" id="fff3883c95"><feColorMatrix values="0 0 0 0 1 0 0 0 0 1 0 0 0 0 1 0 0 0 1 0" color-interpolation-filters="sRGB"/></filter><g/><clipPath id="d796982923"><path d="M 6.109375 6.109375 L 369.109375 6.109375 L 369.109375 369.109375 L 6.109375 369.109375 Z M 6.109375 6.109375 " clip-rule="nonzero"/></clipPath><mask id="edcf3c2df2"><g filter="url(#fff3883c95)"><rect x="-37.5" width="450" fill="#000000" y="-37.499999" height="449.999989" fill-opacity="0.2588"/></g></mask><clipPath id="78f181780e"><path d="M 0.839844 0.734375 L 258.089844 0.734375 L 258.089844 257.984375 L 0.839844 257.984375 Z M 0.839844 0.734375 " clip-rule="nonzero"/></clipPath><clipPath id="e4e966f536"><rect x="0" width="259" y="0" height="259"/></clipPath><clipPath id="96682916f2"><path d="M 26.675781 43.269531 L 337.660156 43.269531 L 337.660156 354.519531 L 26.675781 354.519531 Z M 26.675781 43.269531 " clip-rule="nonzero"/></clipPath><clipPath id="c03e702b06"><path d="M 109 20.769531 L 164 20.769531 L 164 45 L 109 45 Z M 109 20.769531 " clip-rule="nonzero"/></clipPath></defs><rect x="-37.5" width="450" fill="#ffffff" y="-37.499999" height="449.999989" fill-opacity="1"/><rect x="-37.5" width="450" fill="#ffffff" y="-37.499999" height="449.999989" fill-opacity="1"/><rect x="-37.5" width="450" fill="#ffffff" y="-37.499999" height="449.999989" fill-opacity="1"/><g clip-path="url(#d796982923)"><path fill="#71d3ff" d="M 187.609375 6.109375 C 87.367188 6.109375 6.109375 87.367188 6.109375 187.609375 C 6.109375 287.847656 87.367188 369.109375 187.609375 369.109375 C 287.847656 369.109375 369.109375 287.847656 369.109375 187.609375 C 369.109375 87.367188 287.847656 6.109375 187.609375 6.109375 " fill-opacity="1" fill-rule="nonzero"/></g><g mask="url(#edcf3c2df2)"><g transform="matrix(1, 0, 0, 1, 114, 113)"><g clip-path="url(#e4e966f536)"><g clip-path="url(#78f181780e)"><path fill="#ffffff" d="M 129.464844 0.734375 C 58.425781 0.734375 0.839844 58.324219 0.839844 129.359375 C 0.839844 200.398438 58.425781 257.984375 129.464844 257.984375 C 200.503906 257.984375 258.089844 200.398438 258.089844 129.359375 C 258.089844 58.324219 200.503906 0.734375 129.464844 0.734375 " fill-opacity="1" fill-rule="nonzero"/></g></g></g></g><g clip-path="url(#96682916f2)"><path fill="#212121" d="M 192.441406 354.519531 C 101.039062 354.519531 26.675781 280.167969 26.675781 188.773438 C 26.675781 128.613281 59.375 73.066406 112.015625 43.808594 C 112.382812 43.601562 112.851562 43.734375 113.058594 44.105469 C 113.265625 44.476562 113.128906 44.941406 112.757812 45.148438 C 60.609375 74.136719 28.210938 129.171875 28.210938 188.773438 C 28.210938 279.320312 101.886719 352.984375 192.441406 352.984375 C 252.167969 352.984375 307.261719 320.496094 336.21875 268.195312 C 336.425781 267.824219 336.894531 267.6875 337.265625 267.894531 C 337.632812 268.097656 337.769531 268.566406 337.5625 268.9375 C 308.335938 321.726562 252.726562 354.519531 192.441406 354.519531 " fill-opacity="1" fill-rule="nonzero"/></g><g clip-path="url(#c03e702b06)"><path fill="#212121" d="M 163.386719 22.160156 C 163.082031 21.71875 162.472656 21.398438 162.050781 21.4375 C 161.976562 21.367188 161.898438 21.308594 161.8125 21.253906 C 161.035156 20.75 159.773438 20.789062 158.234375 21.082031 C 156.527344 21.40625 153.683594 22.480469 151.617188 23.234375 C 149.554688 23.992188 145.101562 25.8125 142.441406 26.914062 C 142.042969 27.078125 141.464844 27.308594 140.78125 27.582031 C 139.621094 27.535156 137.339844 27.4375 136.464844 27.40625 C 135.269531 27.367188 126.40625 27.152344 125.894531 27.230469 C 125.382812 27.304688 124.679688 27.625 124.621094 27.773438 C 124.566406 27.921875 124.746094 27.894531 125.132812 28.011719 C 125.519531 28.128906 128.0625 28.597656 128.425781 28.703125 C 128.738281 28.792969 132.851562 29.777344 134.21875 30.167969 C 131.132812 31.382812 128.078125 32.59375 126.632812 33.214844 C 126.261719 33.375 125.816406 33.570312 125.320312 33.800781 C 123.589844 33.726562 122.117188 33.230469 121.039062 32.757812 C 119.863281 32.242188 113.367188 29.460938 112.914062 29.363281 C 112.464844 29.269531 110.699219 29.796875 109.671875 30.382812 C 110.074219 30.929688 113.863281 34.984375 115.460938 36.777344 C 114.679688 36.773438 113.328125 36.765625 112.941406 36.816406 C 112.515625 36.875 111.832031 37.09375 110.957031 37.558594 C 110.894531 37.59375 110.898438 37.691406 110.964844 37.71875 C 111.6875 38.035156 113.519531 38.734375 114.613281 39.113281 C 114.132812 39.375 113.703125 39.617188 113.339844 39.832031 C 113.238281 39.875 113.273438 40.175781 113.417969 40.496094 C 113.558594 40.816406 113.753906 41.039062 113.851562 41.003906 C 114.777344 40.953125 115.941406 40.847656 117.199219 40.703125 C 117.035156 41.105469 116.164062 43.296875 116.164062 43.296875 C 116.164062 43.296875 118.015625 42.835938 118.667969 42.5 C 119.507812 42.078125 121.820312 40.707031 123.082031 39.914062 C 125.402344 39.558594 127.425781 39.203125 128.367188 38.988281 C 130.597656 38.472656 137.582031 35.730469 138.742188 35.296875 C 139.074219 35.175781 140.1875 34.71875 141.617188 34.125 C 141.820312 34.234375 141.945312 34.402344 142.003906 34.59375 C 142.027344 34.679688 142.042969 34.765625 142.039062 34.859375 L 140.730469 44.175781 L 140.65625 44.71875 C 140.648438 44.832031 140.761719 44.914062 140.867188 44.871094 L 142.503906 44.1875 C 142.640625 44.132812 142.761719 44.039062 142.855469 43.925781 C 143.203125 43.496094 144.339844 41.261719 145.550781 38.828125 C 146.070312 38.675781 146.589844 38.527344 147.105469 38.359375 C 147.429688 38.253906 147.753906 38.148438 148.0625 38.039062 C 148.617188 37.855469 149.144531 37.671875 149.609375 37.507812 C 149.816406 37.433594 149.960938 37.25 149.980469 37.035156 C 150.015625 36.546875 149.945312 35.976562 149.757812 35.394531 C 149.53125 34.683594 149.175781 34.09375 148.78125 33.707031 C 148.636719 33.5625 148.417969 33.527344 148.234375 33.609375 C 148.199219 33.625 148.160156 33.644531 148.128906 33.65625 C 148.605469 32.714844 148.960938 32.039062 149.082031 31.886719 C 149.382812 31.5 149.84375 31.023438 150.265625 30.539062 C 150.953125 30.253906 151.464844 30.042969 151.675781 29.960938 C 152.882812 29.480469 155.386719 28.386719 156.808594 27.710938 C 159.320312 26.519531 161.222656 25.328125 162.257812 24.542969 C 163.292969 23.753906 163.695312 22.597656 163.386719 22.160156 " fill-opacity="1" fill-rule="nonzero"/></g><g fill="#212121" fill-opacity="0.4"><g transform="translate(79.636711, 178.975984)"><g><path d="M 13.859375 0.671875 C 12.640625 0.671875 11.46875 0.46875 10.34375 0.0625 C 9.21875 -0.34375 8.289062 -1.0625 7.5625 -2.09375 C 6.84375 -3.132812 6.484375 -4.578125 6.484375 -6.421875 L 6.484375 -37.0625 L 12.515625 -37.0625 L 12.515625 -7.171875 C 12.515625 -6.128906 12.726562 -5.382812 13.15625 -4.9375 C 13.582031 -4.488281 14.3125 -4.265625 15.34375 -4.265625 C 15.75 -4.265625 16.175781 -4.304688 16.625 -4.390625 C 17.082031 -4.484375 17.515625 -4.597656 17.921875 -4.734375 L 18.734375 -0.34375 C 17.878906 0.0625 17.046875 0.332031 16.234375 0.46875 C 15.421875 0.601562 14.628906 0.671875 13.859375 0.671875 Z M 13.859375 0.671875 "/></g></g></g><g fill="#212121" fill-opacity="0.4"><g transform="translate(103.978031, 178.975984)"><g><path d="M 5.6875 0 L 5.6875 -37.0625 L 9.875 -37.0625 L 10.953125 -31.171875 L 11.21875 -31.171875 C 11.988281 -33.203125 13.390625 -34.800781 15.421875 -35.96875 C 17.453125 -37.144531 19.910156 -37.734375 22.796875 -37.734375 C 26.804688 -37.734375 29.957031 -36.695312 32.25 -34.625 C 34.550781 -32.550781 35.703125 -29.257812 35.703125 -24.75 L 35.703125 0 L 29.6875 0 L 29.6875 -24.40625 C 29.6875 -29.90625 27.003906 -32.65625 21.640625 -32.65625 C 19.523438 -32.65625 17.722656 -32.160156 16.234375 -31.171875 C 14.742188 -30.179688 13.613281 -28.835938 12.84375 -27.140625 C 12.082031 -25.453125 11.703125 -23.550781 11.703125 -21.4375 L 11.703125 0 Z M 5.6875 0 "/></g></g></g><g fill="#212121" fill-opacity="0.4"><g transform="translate(144.956963, 178.975984)"><g><path d="M -34.765625 -42.9375 L -34.765625 -45.578125 L -29.828125 -47.75 L -11.625 -47.75 L -11.625 -53.21875 L -5.953125 -53.21875 L -5.953125 -45.578125 L -6.015625 -45.578125 L -6.015625 -42.9375 Z M -34.765625 -42.9375 "/></g></g><g transform="translate(144.956963, 178.975984)"><g><path d="M -11.703125 -57.203125 L -11.703125 -68.234375 L -5.953125 -68.234375 L -5.953125 -57.203125 Z M -11.703125 -57.203125 "/></g></g></g><g fill="#212121" fill-opacity="0.4"><g transform="translate(149.549359, 178.975984)"><g><path d="M 19.75 0.609375 C 14.25 0.609375 10.378906 -0.425781 8.140625 -2.5 C 5.910156 -4.570312 4.796875 -7.367188 4.796875 -10.890625 C 4.796875 -12.960938 5.097656 -14.617188 5.703125 -15.859375 C 6.316406 -17.097656 7.085938 -18.007812 8.015625 -18.59375 C 8.941406 -19.175781 9.898438 -19.5625 10.890625 -19.75 L 10.890625 -20.015625 C 9.941406 -20.285156 8.984375 -20.734375 8.015625 -21.359375 C 7.046875 -21.992188 6.234375 -22.875 5.578125 -24 C 4.921875 -25.132812 4.59375 -26.554688 4.59375 -28.265625 C 4.59375 -29.796875 4.953125 -31.269531 5.671875 -32.6875 C 6.398438 -34.113281 7.570312 -35.273438 9.1875 -36.171875 C 10.8125 -37.078125 12.957031 -37.53125 15.625 -37.53125 C 16.707031 -37.53125 17.832031 -37.453125 19 -37.296875 C 20.175781 -37.140625 21.078125 -36.878906 21.703125 -36.515625 L 20.625 -31.84375 C 20.125 -32.03125 19.476562 -32.203125 18.6875 -32.359375 C 17.90625 -32.515625 17.085938 -32.59375 16.234375 -32.59375 C 14.335938 -32.59375 12.9375 -32.148438 12.03125 -31.265625 C 11.132812 -30.390625 10.6875 -29.234375 10.6875 -27.796875 C 10.6875 -26.210938 11.078125 -25.015625 11.859375 -24.203125 C 12.648438 -23.398438 13.664062 -22.847656 14.90625 -22.546875 C 16.144531 -22.253906 17.441406 -22.109375 18.796875 -22.109375 L 20.078125 -22.109375 L 20.078125 -17.71875 L 18.796875 -17.71875 C 16.097656 -17.71875 14.101562 -17.222656 12.8125 -16.234375 C 11.53125 -15.242188 10.890625 -13.640625 10.890625 -11.421875 C 10.890625 -10.117188 11.144531 -8.925781 11.65625 -7.84375 C 12.175781 -6.757812 13.078125 -5.898438 14.359375 -5.265625 C 15.648438 -4.640625 17.445312 -4.328125 19.75 -4.328125 C 23.175781 -4.328125 25.519531 -5.023438 26.78125 -6.421875 C 28.039062 -7.816406 28.671875 -9.78125 28.671875 -12.3125 L 28.671875 -37.0625 L 34.6875 -37.0625 L 34.6875 -12.71875 C 34.6875 -7.976562 33.476562 -4.570312 31.0625 -2.5 C 28.65625 -0.425781 24.882812 0.609375 19.75 0.609375 Z M 19.75 0.609375 "/></g></g></g><g fill="#212121" fill-opacity="0.4"><g transform="translate(194.106517, 178.975984)"><g><path d="M 12.921875 0.671875 C 11.160156 0.671875 9.457031 0.488281 7.8125 0.125 C 6.164062 -0.226562 4.414062 -0.898438 2.5625 -1.890625 L 4.46875 -6.484375 C 5.457031 -5.898438 6.582031 -5.394531 7.84375 -4.96875 C 9.101562 -4.539062 10.566406 -4.328125 12.234375 -4.328125 C 15.578125 -4.328125 18.179688 -5.539062 20.046875 -7.96875 C 21.921875 -10.40625 22.859375 -13.972656 22.859375 -18.671875 C 22.859375 -23.222656 21.898438 -26.703125 19.984375 -29.109375 C 18.066406 -31.523438 15.125 -32.734375 11.15625 -32.734375 C 9.71875 -32.734375 8.253906 -32.570312 6.765625 -32.25 C 5.273438 -31.9375 3.96875 -31.46875 2.84375 -30.84375 L 2.84375 -35.90625 C 4.101562 -36.582031 5.519531 -37.054688 7.09375 -37.328125 C 8.675781 -37.597656 10.253906 -37.734375 11.828125 -37.734375 C 15.890625 -37.734375 19.179688 -36.929688 21.703125 -35.328125 C 24.234375 -33.734375 26.082031 -31.503906 27.25 -28.640625 C 28.425781 -25.773438 29.015625 -22.453125 29.015625 -18.671875 C 29.015625 -12.710938 27.671875 -8 24.984375 -4.53125 C 22.304688 -1.0625 18.285156 0.671875 12.921875 0.671875 Z M 12.921875 0.671875 "/></g></g></g><g fill="#212121" fill-opacity="0.4"><g transform="translate(231.767302, 178.975984)"><g><path d="M 14.8125 0.671875 C 13.59375 0.671875 12.421875 0.46875 11.296875 0.0625 C 10.171875 -0.34375 9.242188 -1.0625 8.515625 -2.09375 C 7.796875 -3.132812 7.4375 -4.578125 7.4375 -6.421875 L 7.4375 -42.40625 C 7.4375 -44.925781 7.785156 -46.796875 8.484375 -48.015625 C 9.179688 -49.234375 10.003906 -50.179688 10.953125 -50.859375 L 10.890625 -51.125 L -0.875 -51.125 L 0.671875 -55.859375 L 19.75 -55.859375 L 19.75 -51.125 C 18.03125 -51.125 16.550781 -50.582031 15.3125 -49.5 C 14.070312 -48.414062 13.453125 -46.429688 13.453125 -43.546875 L 13.453125 -7.171875 C 13.453125 -6.128906 13.664062 -5.382812 14.09375 -4.9375 C 14.53125 -4.488281 15.265625 -4.265625 16.296875 -4.265625 C 16.703125 -4.265625 17.128906 -4.304688 17.578125 -4.390625 C 18.035156 -4.484375 18.46875 -4.597656 18.875 -4.734375 L 19.671875 -0.34375 C 18.816406 0.0625 17.984375 0.332031 17.171875 0.46875 C 16.359375 0.601562 15.570312 0.671875 14.8125 0.671875 Z M 14.8125 0.671875 "/></g></g></g><g fill="#212121" fill-opacity="0.4"><g transform="translate(256.717132, 178.975984)"><g><path d="M 20.359375 0.671875 C 15.035156 0.671875 11.222656 -0.539062 8.921875 -2.96875 C 6.628906 -5.40625 5.484375 -8.878906 5.484375 -13.390625 L 5.484375 -37.0625 L 11.5 -37.0625 L 11.5 -13.328125 C 11.5 -7.328125 14.453125 -4.328125 20.359375 -4.328125 C 23.421875 -4.328125 25.679688 -5.070312 27.140625 -6.5625 C 28.609375 -8.050781 29.34375 -10.304688 29.34375 -13.328125 L 29.34375 -50.375 L 35.375 -50.375 L 35.375 -13.390625 C 35.375 -8.878906 34.210938 -5.40625 31.890625 -2.96875 C 29.566406 -0.539062 25.722656 0.671875 20.359375 0.671875 Z M 20.359375 0.671875 "/></g></g></g><g fill="#212121" fill-opacity="1"><g transform="translate(78.500949, 177.840217)"><g><path d="M 13.859375 0.671875 C 12.640625 0.671875 11.46875 0.46875 10.34375 0.0625 C 9.21875 -0.34375 8.289062 -1.0625 7.5625 -2.09375 C 6.84375 -3.132812 6.484375 -4.578125 6.484375 -6.421875 L 6.484375 -37.0625 L 12.515625 -37.0625 L 12.515625 -7.171875 C 12.515625 -6.128906 12.726562 -5.382812 13.15625 -4.9375 C 13.582031 -4.488281 14.3125 -4.265625 15.34375 -4.265625 C 15.75 -4.265625 16.175781 -4.304688 16.625 -4.390625 C 17.082031 -4.484375 17.515625 -4.597656 17.921875 -4.734375 L 18.734375 -0.34375 C 17.878906 0.0625 17.046875 0.332031 16.234375 0.46875 C 15.421875 0.601562 14.628906 0.671875 13.859375 0.671875 Z M 13.859375 0.671875 "/></g></g></g><g fill="#212121" fill-opacity="1"><g transform="translate(102.842269, 177.840217)"><g><path d="M 5.6875 0 L 5.6875 -37.0625 L 9.875 -37.0625 L 10.953125 -31.171875 L 11.21875 -31.171875 C 11.988281 -33.203125 13.390625 -34.800781 15.421875 -35.96875 C 17.453125 -37.144531 19.910156 -37.734375 22.796875 -37.734375 C 26.804688 -37.734375 29.957031 -36.695312 32.25 -34.625 C 34.550781 -32.550781 35.703125 -29.257812 35.703125 -24.75 L 35.703125 0 L 29.6875 0 L 29.6875 -24.40625 C 29.6875 -29.90625 27.003906 -32.65625 21.640625 -32.65625 C 19.523438 -32.65625 17.722656 -32.160156 16.234375 -31.171875 C 14.742188 -30.179688 13.613281 -28.835938 12.84375 -27.140625 C 12.082031 -25.453125 11.703125 -23.550781 11.703125 -21.4375 L 11.703125 0 Z M 5.6875 0 "/></g></g></g><g fill="#212121" fill-opacity="1"><g transform="translate(143.821201, 177.840217)"><g><path d="M -34.765625 -42.9375 L -34.765625 -45.578125 L -29.828125 -47.75 L -11.625 -47.75 L -11.625 -53.21875 L -5.953125 -53.21875 L -5.953125 -45.578125 L -6.015625 -45.578125 L -6.015625 -42.9375 Z M -34.765625 -42.9375 "/></g></g><g transform="translate(143.821201, 177.840217)"><g><path d="M -11.703125 -57.203125 L -11.703125 -68.234375 L -5.953125 -68.234375 L -5.953125 -57.203125 Z M -11.703125 -57.203125 "/></g></g></g><g fill="#212121" fill-opacity="1"><g transform="translate(148.413597, 177.840217)"><g><path d="M 19.75 0.609375 C 14.25 0.609375 10.378906 -0.425781 8.140625 -2.5 C 5.910156 -4.570312 4.796875 -7.367188 4.796875 -10.890625 C 4.796875 -12.960938 5.097656 -14.617188 5.703125 -15.859375 C 6.316406 -17.097656 7.085938 -18.007812 8.015625 -18.59375 C 8.941406 -19.175781 9.898438 -19.5625 10.890625 -19.75 L 10.890625 -20.015625 C 9.941406 -20.285156 8.984375 -20.734375 8.015625 -21.359375 C 7.046875 -21.992188 6.234375 -22.875 5.578125 -24 C 4.921875 -25.132812 4.59375 -26.554688 4.59375 -28.265625 C 4.59375 -29.796875 4.953125 -31.269531 5.671875 -32.6875 C 6.398438 -34.113281 7.570312 -35.273438 9.1875 -36.171875 C 10.8125 -37.078125 12.957031 -37.53125 15.625 -37.53125 C 16.707031 -37.53125 17.832031 -37.453125 19 -37.296875 C 20.175781 -37.140625 21.078125 -36.878906 21.703125 -36.515625 L 20.625 -31.84375 C 20.125 -32.03125 19.476562 -32.203125 18.6875 -32.359375 C 17.90625 -32.515625 17.085938 -32.59375 16.234375 -32.59375 C 14.335938 -32.59375 12.9375 -32.148438 12.03125 -31.265625 C 11.132812 -30.390625 10.6875 -29.234375 10.6875 -27.796875 C 10.6875 -26.210938 11.078125 -25.015625 11.859375 -24.203125 C 12.648438 -23.398438 13.664062 -22.847656 14.90625 -22.546875 C 16.144531 -22.253906 17.441406 -22.109375 18.796875 -22.109375 L 20.078125 -22.109375 L 20.078125 -17.71875 L 18.796875 -17.71875 C 16.097656 -17.71875 14.101562 -17.222656 12.8125 -16.234375 C 11.53125 -15.242188 10.890625 -13.640625 10.890625 -11.421875 C 10.890625 -10.117188 11.144531 -8.925781 11.65625 -7.84375 C 12.175781 -6.757812 13.078125 -5.898438 14.359375 -5.265625 C 15.648438 -4.640625 17.445312 -4.328125 19.75 -4.328125 C 23.175781 -4.328125 25.519531 -5.023438 26.78125 -6.421875 C 28.039062 -7.816406 28.671875 -9.78125 28.671875 -12.3125 L 28.671875 -37.0625 L 34.6875 -37.0625 L 34.6875 -12.71875 C 34.6875 -7.976562 33.476562 -4.570312 31.0625 -2.5 C 28.65625 -0.425781 24.882812 0.609375 19.75 0.609375 Z M 19.75 0.609375 "/></g></g></g><g fill="#212121" fill-opacity="1"><g transform="translate(192.970756, 177.840217)"><g><path d="M 12.921875 0.671875 C 11.160156 0.671875 9.457031 0.488281 7.8125 0.125 C 6.164062 -0.226562 4.414062 -0.898438 2.5625 -1.890625 L 4.46875 -6.484375 C 5.457031 -5.898438 6.582031 -5.394531 7.84375 -4.96875 C 9.101562 -4.539062 10.566406 -4.328125 12.234375 -4.328125 C 15.578125 -4.328125 18.179688 -5.539062 20.046875 -7.96875 C 21.921875 -10.40625 22.859375 -13.972656 22.859375 -18.671875 C 22.859375 -23.222656 21.898438 -26.703125 19.984375 -29.109375 C 18.066406 -31.523438 15.125 -32.734375 11.15625 -32.734375 C 9.71875 -32.734375 8.253906 -32.570312 6.765625 -32.25 C 5.273438 -31.9375 3.96875 -31.46875 2.84375 -30.84375 L 2.84375 -35.90625 C 4.101562 -36.582031 5.519531 -37.054688 7.09375 -37.328125 C 8.675781 -37.597656 10.253906 -37.734375 11.828125 -37.734375 C 15.890625 -37.734375 19.179688 -36.929688 21.703125 -35.328125 C 24.234375 -33.734375 26.082031 -31.503906 27.25 -28.640625 C 28.425781 -25.773438 29.015625 -22.453125 29.015625 -18.671875 C 29.015625 -12.710938 27.671875 -8 24.984375 -4.53125 C 22.304688 -1.0625 18.285156 0.671875 12.921875 0.671875 Z M 12.921875 0.671875 "/></g></g></g><g fill="#212121" fill-opacity="1"><g transform="translate(230.63154, 177.840217)"><g><path d="M 14.8125 0.671875 C 13.59375 0.671875 12.421875 0.46875 11.296875 0.0625 C 10.171875 -0.34375 9.242188 -1.0625 8.515625 -2.09375 C 7.796875 -3.132812 7.4375 -4.578125 7.4375 -6.421875 L 7.4375 -42.40625 C 7.4375 -44.925781 7.785156 -46.796875 8.484375 -48.015625 C 9.179688 -49.234375 10.003906 -50.179688 10.953125 -50.859375 L 10.890625 -51.125 L -0.875 -51.125 L 0.671875 -55.859375 L 19.75 -55.859375 L 19.75 -51.125 C 18.03125 -51.125 16.550781 -50.582031 15.3125 -49.5 C 14.070312 -48.414062 13.453125 -46.429688 13.453125 -43.546875 L 13.453125 -7.171875 C 13.453125 -6.128906 13.664062 -5.382812 14.09375 -4.9375 C 14.53125 -4.488281 15.265625 -4.265625 16.296875 -4.265625 C 16.703125 -4.265625 17.128906 -4.304688 17.578125 -4.390625 C 18.035156 -4.484375 18.46875 -4.597656 18.875 -4.734375 L 19.671875 -0.34375 C 18.816406 0.0625 17.984375 0.332031 17.171875 0.46875 C 16.359375 0.601562 15.570312 0.671875 14.8125 0.671875 Z M 14.8125 0.671875 "/></g></g></g><g fill="#212121" fill-opacity="1"><g transform="translate(255.58137, 177.840217)"><g><path d="M 20.359375 0.671875 C 15.035156 0.671875 11.222656 -0.539062 8.921875 -2.96875 C 6.628906 -5.40625 5.484375 -8.878906 5.484375 -13.390625 L 5.484375 -37.0625 L 11.5 -37.0625 L 11.5 -13.328125 C 11.5 -7.328125 14.453125 -4.328125 20.359375 -4.328125 C 23.421875 -4.328125 25.679688 -5.070312 27.140625 -6.5625 C 28.609375 -8.050781 29.34375 -10.304688 29.34375 -13.328125 L 29.34375 -50.375 L 35.375 -50.375 L 35.375 -13.390625 C 35.375 -8.878906 34.210938 -5.40625 31.890625 -2.96875 C 29.566406 -0.539062 25.722656 0.671875 20.359375 0.671875 Z M 20.359375 0.671875 "/></g></g></g><g fill="#212121" fill-opacity="0.4"><g transform="translate(61.082464, 246.616784)"><g><path d="M 13.859375 0.671875 C 12.640625 0.671875 11.46875 0.46875 10.34375 0.0625 C 9.21875 -0.34375 8.289062 -1.0625 7.5625 -2.09375 C 6.84375 -3.132812 6.484375 -4.578125 6.484375 -6.421875 L 6.484375 -37.0625 L 12.515625 -37.0625 L 12.515625 -7.171875 C 12.515625 -6.128906 12.726562 -5.382812 13.15625 -4.9375 C 13.582031 -4.488281 14.3125 -4.265625 15.34375 -4.265625 C 15.75 -4.265625 16.175781 -4.304688 16.625 -4.390625 C 17.082031 -4.484375 17.515625 -4.597656 17.921875 -4.734375 L 18.734375 -0.34375 C 17.878906 0.0625 17.046875 0.332031 16.234375 0.46875 C 15.421875 0.601562 14.628906 0.671875 13.859375 0.671875 Z M 13.859375 0.671875 "/></g></g></g><g fill="#212121" fill-opacity="0.4"><g transform="translate(85.423783, 246.616784)"><g><path d="M 18.59375 0.671875 C 13.726562 0.671875 10.085938 -0.585938 7.671875 -3.109375 C 5.265625 -5.628906 4.0625 -9.640625 4.0625 -15.140625 C 4.0625 -16.046875 4.09375 -17.023438 4.15625 -18.078125 C 4.226562 -19.140625 4.304688 -20.191406 4.390625 -21.234375 L 18.59375 -21.234375 L 18.59375 -16.5 L 10.078125 -16.5 L 10.078125 -15.140625 C 10.078125 -12.253906 10.390625 -10.023438 11.015625 -8.453125 C 11.648438 -6.878906 12.585938 -5.773438 13.828125 -5.140625 C 15.066406 -4.503906 16.613281 -4.1875 18.46875 -4.1875 C 20.488281 -4.1875 22.242188 -4.566406 23.734375 -5.328125 C 25.222656 -6.097656 26.375 -7.5 27.1875 -9.53125 C 28 -11.5625 28.40625 -14.472656 28.40625 -18.265625 C 28.40625 -23.222656 27.554688 -26.875 25.859375 -29.21875 C 24.171875 -31.5625 21.253906 -32.734375 17.109375 -32.734375 C 14.941406 -32.734375 12.878906 -32.453125 10.921875 -31.890625 C 8.960938 -31.328125 7.082031 -30.523438 5.28125 -29.484375 L 5.28125 -35.09375 C 6.625 -35.8125 8.398438 -36.429688 10.609375 -36.953125 C 12.828125 -37.472656 15.242188 -37.734375 17.859375 -37.734375 C 21.816406 -37.734375 25.023438 -36.929688 27.484375 -35.328125 C 29.941406 -33.734375 31.734375 -31.476562 32.859375 -28.5625 C 33.992188 -25.65625 34.5625 -22.222656 34.5625 -18.265625 C 34.5625 -14.296875 34.039062 -10.890625 33 -8.046875 C 31.96875 -5.203125 30.289062 -3.035156 27.96875 -1.546875 C 25.644531 -0.0664062 22.519531 0.671875 18.59375 0.671875 Z M 18.59375 0.671875 "/></g></g></g><g fill="#212121" fill-opacity="0.4"><g transform="translate(128.628711, 246.616784)"><g><path d="M 14.8125 0.671875 C 13.59375 0.671875 12.421875 0.46875 11.296875 0.0625 C 10.171875 -0.34375 9.242188 -1.0625 8.515625 -2.09375 C 7.796875 -3.132812 7.4375 -4.578125 7.4375 -6.421875 L 7.4375 -42.40625 C 7.4375 -44.925781 7.785156 -46.796875 8.484375 -48.015625 C 9.179688 -49.234375 10.003906 -50.179688 10.953125 -50.859375 L 10.890625 -51.125 L -0.875 -51.125 L 0.671875 -55.859375 L 19.75 -55.859375 L 19.75 -51.125 C 18.03125 -51.125 16.550781 -50.582031 15.3125 -49.5 C 14.070312 -48.414062 13.453125 -46.429688 13.453125 -43.546875 L 13.453125 -7.171875 C 13.453125 -6.128906 13.664062 -5.382812 14.09375 -4.9375 C 14.53125 -4.488281 15.265625 -4.265625 16.296875 -4.265625 C 16.703125 -4.265625 17.128906 -4.304688 17.578125 -4.390625 C 18.035156 -4.484375 18.46875 -4.597656 18.875 -4.734375 L 19.671875 -0.34375 C 18.816406 0.0625 17.984375 0.332031 17.171875 0.46875 C 16.359375 0.601562 15.570312 0.671875 14.8125 0.671875 Z M 14.8125 0.671875 "/></g></g></g><g fill="#212121" fill-opacity="0.4"><g transform="translate(153.578534, 246.616784)"><g><path d="M 18.59375 0.671875 C 13.726562 0.671875 10.085938 -0.585938 7.671875 -3.109375 C 5.265625 -5.628906 4.0625 -9.640625 4.0625 -15.140625 C 4.0625 -16.046875 4.09375 -17.023438 4.15625 -18.078125 C 4.226562 -19.140625 4.304688 -20.191406 4.390625 -21.234375 L 18.59375 -21.234375 L 18.59375 -16.5 L 10.078125 -16.5 L 10.078125 -15.140625 C 10.078125 -12.253906 10.390625 -10.023438 11.015625 -8.453125 C 11.648438 -6.878906 12.585938 -5.773438 13.828125 -5.140625 C 15.066406 -4.503906 16.613281 -4.1875 18.46875 -4.1875 C 20.488281 -4.1875 22.242188 -4.566406 23.734375 -5.328125 C 25.222656 -6.097656 26.375 -7.5 27.1875 -9.53125 C 28 -11.5625 28.40625 -14.472656 28.40625 -18.265625 C 28.40625 -23.222656 27.554688 -26.875 25.859375 -29.21875 C 24.171875 -31.5625 21.253906 -32.734375 17.109375 -32.734375 C 14.941406 -32.734375 12.878906 -32.453125 10.921875 -31.890625 C 8.960938 -31.328125 7.082031 -30.523438 5.28125 -29.484375 L 5.28125 -35.09375 C 6.625 -35.8125 8.398438 -36.429688 10.609375 -36.953125 C 12.828125 -37.472656 15.242188 -37.734375 17.859375 -37.734375 C 21.816406 -37.734375 25.023438 -36.929688 27.484375 -35.328125 C 29.941406 -33.734375 31.734375 -31.476562 32.859375 -28.5625 C 33.992188 -25.65625 34.5625 -22.222656 34.5625 -18.265625 C 34.5625 -14.296875 34.039062 -10.890625 33 -8.046875 C 31.96875 -5.203125 30.289062 -3.035156 27.96875 -1.546875 C 25.644531 -0.0664062 22.519531 0.671875 18.59375 0.671875 Z M 18.59375 0.671875 "/></g></g></g><g fill="#212121" fill-opacity="0.4"><g transform="translate(196.783462, 246.616784)"><g><path d="M 18.59375 0.671875 C 14.3125 0.671875 11.007812 -0.351562 8.6875 -2.40625 C 6.363281 -4.457031 5.203125 -7.53125 5.203125 -11.625 L 5.203125 -15.75 C 5.203125 -17.957031 5.515625 -19.726562 6.140625 -21.0625 C 6.773438 -22.394531 7.457031 -23.535156 8.1875 -24.484375 C 8.945312 -25.472656 9.609375 -26.359375 10.171875 -27.140625 C 10.734375 -27.929688 11.015625 -28.867188 11.015625 -29.953125 C 11.015625 -30.898438 10.78125 -31.578125 10.3125 -31.984375 C 9.84375 -32.390625 9.242188 -32.59375 8.515625 -32.59375 C 7.972656 -32.59375 7.398438 -32.5 6.796875 -32.3125 C 6.191406 -32.132812 5.59375 -31.914062 5 -31.65625 L 3.65625 -35.96875 C 4.46875 -36.507812 5.46875 -36.894531 6.65625 -37.125 C 7.851562 -37.351562 8.90625 -37.46875 9.8125 -37.46875 C 12.289062 -37.46875 14.054688 -36.820312 15.109375 -35.53125 C 16.171875 -34.25 16.703125 -32.617188 16.703125 -30.640625 C 16.703125 -28.960938 16.421875 -27.582031 15.859375 -26.5 C 15.296875 -25.425781 14.628906 -24.367188 13.859375 -23.328125 C 13.097656 -22.203125 12.46875 -21.117188 11.96875 -20.078125 C 11.46875 -19.046875 11.21875 -17.695312 11.21875 -16.03125 L 11.21875 -12.03125 C 11.21875 -9.957031 11.554688 -8.359375 12.234375 -7.234375 C 12.910156 -6.109375 13.8125 -5.332031 14.9375 -4.90625 C 16.070312 -4.476562 17.289062 -4.265625 18.59375 -4.265625 C 23.195312 -4.265625 25.5 -6.425781 25.5 -10.75 L 25.5 -20.21875 C 25.5 -21.882812 25.113281 -23.15625 24.34375 -24.03125 C 23.582031 -24.914062 22.34375 -25.359375 20.625 -25.359375 L 20.359375 -25.359375 L 20.359375 -29.21875 L 20.6875 -29.21875 C 22.539062 -29.21875 23.847656 -29.644531 24.609375 -30.5 C 25.378906 -31.351562 25.84375 -32.390625 26 -33.609375 C 26.15625 -34.828125 26.234375 -35.976562 26.234375 -37.0625 L 32.25 -37.0625 C 32.25 -34.664062 31.957031 -32.625 31.375 -30.9375 C 30.789062 -29.25 29.460938 -28.046875 27.390625 -27.328125 L 27.390625 -27.046875 C 28.609375 -26.691406 29.507812 -26.148438 30.09375 -25.421875 C 30.675781 -24.703125 31.054688 -23.878906 31.234375 -22.953125 C 31.421875 -22.035156 31.515625 -21.144531 31.515625 -20.28125 L 31.515625 -10.421875 C 31.515625 -6.941406 30.429688 -4.222656 28.265625 -2.265625 C 26.097656 -0.304688 22.875 0.671875 18.59375 0.671875 Z M 18.59375 0.671875 "/></g></g></g><g fill="#212121" fill-opacity="0.4"><g transform="translate(235.057517, 246.75202)"><g><path d="M -12.03125 -42.9375 L -12.03125 -57.203125 L -6.09375 -57.203125 L -6.09375 -42.9375 Z M -12.03125 -42.9375 "/></g></g></g><g fill="#212121" fill-opacity="0.4"><g transform="translate(238.365724, 246.616784)"><g><path d="M 12.921875 0.671875 C 11.160156 0.671875 9.457031 0.488281 7.8125 0.125 C 6.164062 -0.226562 4.414062 -0.898438 2.5625 -1.890625 L 4.46875 -6.484375 C 5.457031 -5.898438 6.582031 -5.394531 7.84375 -4.96875 C 9.101562 -4.539062 10.566406 -4.328125 12.234375 -4.328125 C 15.578125 -4.328125 18.179688 -5.539062 20.046875 -7.96875 C 21.921875 -10.40625 22.859375 -13.972656 22.859375 -18.671875 C 22.859375 -23.222656 21.898438 -26.703125 19.984375 -29.109375 C 18.066406 -31.523438 15.125 -32.734375 11.15625 -32.734375 C 9.71875 -32.734375 8.253906 -32.570312 6.765625 -32.25 C 5.273438 -31.9375 3.96875 -31.46875 2.84375 -30.84375 L 2.84375 -35.90625 C 4.101562 -36.582031 5.519531 -37.054688 7.09375 -37.328125 C 8.675781 -37.597656 10.253906 -37.734375 11.828125 -37.734375 C 15.890625 -37.734375 19.179688 -36.929688 21.703125 -35.328125 C 24.234375 -33.734375 26.082031 -31.503906 27.25 -28.640625 C 28.425781 -25.773438 29.015625 -22.453125 29.015625 -18.671875 C 29.015625 -12.710938 27.671875 -8 24.984375 -4.53125 C 22.304688 -1.0625 18.285156 0.671875 12.921875 0.671875 Z M 12.921875 0.671875 "/></g></g></g><g fill="#212121" fill-opacity="0.4"><g transform="translate(276.0265, 246.616784)"><g><path d="M 19.75 0.609375 C 14.25 0.609375 10.378906 -0.425781 8.140625 -2.5 C 5.910156 -4.570312 4.796875 -7.367188 4.796875 -10.890625 C 4.796875 -12.960938 5.097656 -14.617188 5.703125 -15.859375 C 6.316406 -17.097656 7.085938 -18.007812 8.015625 -18.59375 C 8.941406 -19.175781 9.898438 -19.5625 10.890625 -19.75 L 10.890625 -20.015625 C 9.941406 -20.285156 8.984375 -20.734375 8.015625 -21.359375 C 7.046875 -21.992188 6.234375 -22.875 5.578125 -24 C 4.921875 -25.132812 4.59375 -26.554688 4.59375 -28.265625 C 4.59375 -29.796875 4.953125 -31.269531 5.671875 -32.6875 C 6.398438 -34.113281 7.570312 -35.273438 9.1875 -36.171875 C 10.8125 -37.078125 12.957031 -37.53125 15.625 -37.53125 C 16.707031 -37.53125 17.832031 -37.453125 19 -37.296875 C 20.175781 -37.140625 21.078125 -36.878906 21.703125 -36.515625 L 20.625 -31.84375 C 20.125 -32.03125 19.476562 -32.203125 18.6875 -32.359375 C 17.90625 -32.515625 17.085938 -32.59375 16.234375 -32.59375 C 14.335938 -32.59375 12.9375 -32.148438 12.03125 -31.265625 C 11.132812 -30.390625 10.6875 -29.234375 10.6875 -27.796875 C 10.6875 -26.210938 11.078125 -25.015625 11.859375 -24.203125 C 12.648438 -23.398438 13.664062 -22.847656 14.90625 -22.546875 C 16.144531 -22.253906 17.441406 -22.109375 18.796875 -22.109375 L 20.078125 -22.109375 L 20.078125 -17.71875 L 18.796875 -17.71875 C 16.097656 -17.71875 14.101562 -17.222656 12.8125 -16.234375 C 11.53125 -15.242188 10.890625 -13.640625 10.890625 -11.421875 C 10.890625 -10.117188 11.144531 -8.925781 11.65625 -7.84375 C 12.175781 -6.757812 13.078125 -5.898438 14.359375 -5.265625 C 15.648438 -4.640625 17.445312 -4.328125 19.75 -4.328125 C 23.175781 -4.328125 25.519531 -5.023438 26.78125 -6.421875 C 28.039062 -7.816406 28.671875 -9.78125 28.671875 -12.3125 L 28.671875 -37.0625 L 34.6875 -37.0625 L 34.6875 -12.71875 C 34.6875 -7.976562 33.476562 -4.570312 31.0625 -2.5 C 28.65625 -0.425781 24.882812 0.609375 19.75 0.609375 Z M 19.75 0.609375 "/></g></g></g><g fill="#212121" fill-opacity="1"><g transform="translate(59.946702, 245.481017)"><g><path d="M 13.859375 0.671875 C 12.640625 0.671875 11.46875 0.46875 10.34375 0.0625 C 9.21875 -0.34375 8.289062 -1.0625 7.5625 -2.09375 C 6.84375 -3.132812 6.484375 -4.578125 6.484375 -6.421875 L 6.484375 -37.0625 L 12.515625 -37.0625 L 12.515625 -7.171875 C 12.515625 -6.128906 12.726562 -5.382812 13.15625 -4.9375 C 13.582031 -4.488281 14.3125 -4.265625 15.34375 -4.265625 C 15.75 -4.265625 16.175781 -4.304688 16.625 -4.390625 C 17.082031 -4.484375 17.515625 -4.597656 17.921875 -4.734375 L 18.734375 -0.34375 C 17.878906 0.0625 17.046875 0.332031 16.234375 0.46875 C 15.421875 0.601562 14.628906 0.671875 13.859375 0.671875 Z M 13.859375 0.671875 "/></g></g></g><g fill="#212121" fill-opacity="1"><g transform="translate(84.288022, 245.481017)"><g><path d="M 18.59375 0.671875 C 13.726562 0.671875 10.085938 -0.585938 7.671875 -3.109375 C 5.265625 -5.628906 4.0625 -9.640625 4.0625 -15.140625 C 4.0625 -16.046875 4.09375 -17.023438 4.15625 -18.078125 C 4.226562 -19.140625 4.304688 -20.191406 4.390625 -21.234375 L 18.59375 -21.234375 L 18.59375 -16.5 L 10.078125 -16.5 L 10.078125 -15.140625 C 10.078125 -12.253906 10.390625 -10.023438 11.015625 -8.453125 C 11.648438 -6.878906 12.585938 -5.773438 13.828125 -5.140625 C 15.066406 -4.503906 16.613281 -4.1875 18.46875 -4.1875 C 20.488281 -4.1875 22.242188 -4.566406 23.734375 -5.328125 C 25.222656 -6.097656 26.375 -7.5 27.1875 -9.53125 C 28 -11.5625 28.40625 -14.472656 28.40625 -18.265625 C 28.40625 -23.222656 27.554688 -26.875 25.859375 -29.21875 C 24.171875 -31.5625 21.253906 -32.734375 17.109375 -32.734375 C 14.941406 -32.734375 12.878906 -32.453125 10.921875 -31.890625 C 8.960938 -31.328125 7.082031 -30.523438 5.28125 -29.484375 L 5.28125 -35.09375 C 6.625 -35.8125 8.398438 -36.429688 10.609375 -36.953125 C 12.828125 -37.472656 15.242188 -37.734375 17.859375 -37.734375 C 21.816406 -37.734375 25.023438 -36.929688 27.484375 -35.328125 C 29.941406 -33.734375 31.734375 -31.476562 32.859375 -28.5625 C 33.992188 -25.65625 34.5625 -22.222656 34.5625 -18.265625 C 34.5625 -14.296875 34.039062 -10.890625 33 -8.046875 C 31.96875 -5.203125 30.289062 -3.035156 27.96875 -1.546875 C 25.644531 -0.0664062 22.519531 0.671875 18.59375 0.671875 Z M 18.59375 0.671875 "/></g></g></g><g fill="#212121" fill-opacity="1"><g transform="translate(127.49295, 245.481017)"><g><path d="M 14.8125 0.671875 C 13.59375 0.671875 12.421875 0.46875 11.296875 0.0625 C 10.171875 -0.34375 9.242188 -1.0625 8.515625 -2.09375 C 7.796875 -3.132812 7.4375 -4.578125 7.4375 -6.421875 L 7.4375 -42.40625 C 7.4375 -44.925781 7.785156 -46.796875 8.484375 -48.015625 C 9.179688 -49.234375 10.003906 -50.179688 10.953125 -50.859375 L 10.890625 -51.125 L -0.875 -51.125 L 0.671875 -55.859375 L 19.75 -55.859375 L 19.75 -51.125 C 18.03125 -51.125 16.550781 -50.582031 15.3125 -49.5 C 14.070312 -48.414062 13.453125 -46.429688 13.453125 -43.546875 L 13.453125 -7.171875 C 13.453125 -6.128906 13.664062 -5.382812 14.09375 -4.9375 C 14.53125 -4.488281 15.265625 -4.265625 16.296875 -4.265625 C 16.703125 -4.265625 17.128906 -4.304688 17.578125 -4.390625 C 18.035156 -4.484375 18.46875 -4.597656 18.875 -4.734375 L 19.671875 -0.34375 C 18.816406 0.0625 17.984375 0.332031 17.171875 0.46875 C 16.359375 0.601562 15.570312 0.671875 14.8125 0.671875 Z M 14.8125 0.671875 "/></g></g></g><g fill="#212121" fill-opacity="1"><g transform="translate(152.442773, 245.481017)"><g><path d="M 18.59375 0.671875 C 13.726562 0.671875 10.085938 -0.585938 7.671875 -3.109375 C 5.265625 -5.628906 4.0625 -9.640625 4.0625 -15.140625 C 4.0625 -16.046875 4.09375 -17.023438 4.15625 -18.078125 C 4.226562 -19.140625 4.304688 -20.191406 4.390625 -21.234375 L 18.59375 -21.234375 L 18.59375 -16.5 L 10.078125 -16.5 L 10.078125 -15.140625 C 10.078125 -12.253906 10.390625 -10.023438 11.015625 -8.453125 C 11.648438 -6.878906 12.585938 -5.773438 13.828125 -5.140625 C 15.066406 -4.503906 16.613281 -4.1875 18.46875 -4.1875 C 20.488281 -4.1875 22.242188 -4.566406 23.734375 -5.328125 C 25.222656 -6.097656 26.375 -7.5 27.1875 -9.53125 C 28 -11.5625 28.40625 -14.472656 28.40625 -18.265625 C 28.40625 -23.222656 27.554688 -26.875 25.859375 -29.21875 C 24.171875 -31.5625 21.253906 -32.734375 17.109375 -32.734375 C 14.941406 -32.734375 12.878906 -32.453125 10.921875 -31.890625 C 8.960938 -31.328125 7.082031 -30.523438 5.28125 -29.484375 L 5.28125 -35.09375 C 6.625 -35.8125 8.398438 -36.429688 10.609375 -36.953125 C 12.828125 -37.472656 15.242188 -37.734375 17.859375 -37.734375 C 21.816406 -37.734375 25.023438 -36.929688 27.484375 -35.328125 C 29.941406 -33.734375 31.734375 -31.476562 32.859375 -28.5625 C 33.992188 -25.65625 34.5625 -22.222656 34.5625 -18.265625 C 34.5625 -14.296875 34.039062 -10.890625 33 -8.046875 C 31.96875 -5.203125 30.289062 -3.035156 27.96875 -1.546875 C 25.644531 -0.0664062 22.519531 0.671875 18.59375 0.671875 Z M 18.59375 0.671875 "/></g></g></g><g fill="#212121" fill-opacity="1"><g transform="translate(195.6477, 245.481017)"><g><path d="M 18.59375 0.671875 C 14.3125 0.671875 11.007812 -0.351562 8.6875 -2.40625 C 6.363281 -4.457031 5.203125 -7.53125 5.203125 -11.625 L 5.203125 -15.75 C 5.203125 -17.957031 5.515625 -19.726562 6.140625 -21.0625 C 6.773438 -22.394531 7.457031 -23.535156 8.1875 -24.484375 C 8.945312 -25.472656 9.609375 -26.359375 10.171875 -27.140625 C 10.734375 -27.929688 11.015625 -28.867188 11.015625 -29.953125 C 11.015625 -30.898438 10.78125 -31.578125 10.3125 -31.984375 C 9.84375 -32.390625 9.242188 -32.59375 8.515625 -32.59375 C 7.972656 -32.59375 7.398438 -32.5 6.796875 -32.3125 C 6.191406 -32.132812 5.59375 -31.914062 5 -31.65625 L 3.65625 -35.96875 C 4.46875 -36.507812 5.46875 -36.894531 6.65625 -37.125 C 7.851562 -37.351562 8.90625 -37.46875 9.8125 -37.46875 C 12.289062 -37.46875 14.054688 -36.820312 15.109375 -35.53125 C 16.171875 -34.25 16.703125 -32.617188 16.703125 -30.640625 C 16.703125 -28.960938 16.421875 -27.582031 15.859375 -26.5 C 15.296875 -25.425781 14.628906 -24.367188 13.859375 -23.328125 C 13.097656 -22.203125 12.46875 -21.117188 11.96875 -20.078125 C 11.46875 -19.046875 11.21875 -17.695312 11.21875 -16.03125 L 11.21875 -12.03125 C 11.21875 -9.957031 11.554688 -8.359375 12.234375 -7.234375 C 12.910156 -6.109375 13.8125 -5.332031 14.9375 -4.90625 C 16.070312 -4.476562 17.289062 -4.265625 18.59375 -4.265625 C 23.195312 -4.265625 25.5 -6.425781 25.5 -10.75 L 25.5 -20.21875 C 25.5 -21.882812 25.113281 -23.15625 24.34375 -24.03125 C 23.582031 -24.914062 22.34375 -25.359375 20.625 -25.359375 L 20.359375 -25.359375 L 20.359375 -29.21875 L 20.6875 -29.21875 C 22.539062 -29.21875 23.847656 -29.644531 24.609375 -30.5 C 25.378906 -31.351562 25.84375 -32.390625 26 -33.609375 C 26.15625 -34.828125 26.234375 -35.976562 26.234375 -37.0625 L 32.25 -37.0625 C 32.25 -34.664062 31.957031 -32.625 31.375 -30.9375 C 30.789062 -29.25 29.460938 -28.046875 27.390625 -27.328125 L 27.390625 -27.046875 C 28.609375 -26.691406 29.507812 -26.148438 30.09375 -25.421875 C 30.675781 -24.703125 31.054688 -23.878906 31.234375 -22.953125 C 31.421875 -22.035156 31.515625 -21.144531 31.515625 -20.28125 L 31.515625 -10.421875 C 31.515625 -6.941406 30.429688 -4.222656 28.265625 -2.265625 C 26.097656 -0.304688 22.875 0.671875 18.59375 0.671875 Z M 18.59375 0.671875 "/></g></g></g><g fill="#212121" fill-opacity="1"><g transform="translate(233.921756, 245.616253)"><g><path d="M -12.03125 -42.9375 L -12.03125 -57.203125 L -6.09375 -57.203125 L -6.09375 -42.9375 Z M -12.03125 -42.9375 "/></g></g></g><g fill="#212121" fill-opacity="1"><g transform="translate(237.229962, 245.481017)"><g><path d="M 12.921875 0.671875 C 11.160156 0.671875 9.457031 0.488281 7.8125 0.125 C 6.164062 -0.226562 4.414062 -0.898438 2.5625 -1.890625 L 4.46875 -6.484375 C 5.457031 -5.898438 6.582031 -5.394531 7.84375 -4.96875 C 9.101562 -4.539062 10.566406 -4.328125 12.234375 -4.328125 C 15.578125 -4.328125 18.179688 -5.539062 20.046875 -7.96875 C 21.921875 -10.40625 22.859375 -13.972656 22.859375 -18.671875 C 22.859375 -23.222656 21.898438 -26.703125 19.984375 -29.109375 C 18.066406 -31.523438 15.125 -32.734375 11.15625 -32.734375 C 9.71875 -32.734375 8.253906 -32.570312 6.765625 -32.25 C 5.273438 -31.9375 3.96875 -31.46875 2.84375 -30.84375 L 2.84375 -35.90625 C 4.101562 -36.582031 5.519531 -37.054688 7.09375 -37.328125 C 8.675781 -37.597656 10.253906 -37.734375 11.828125 -37.734375 C 15.890625 -37.734375 19.179688 -36.929688 21.703125 -35.328125 C 24.234375 -33.734375 26.082031 -31.503906 27.25 -28.640625 C 28.425781 -25.773438 29.015625 -22.453125 29.015625 -18.671875 C 29.015625 -12.710938 27.671875 -8 24.984375 -4.53125 C 22.304688 -1.0625 18.285156 0.671875 12.921875 0.671875 Z M 12.921875 0.671875 "/></g></g></g><g fill="#212121" fill-opacity="1"><g transform="translate(274.890739, 245.481017)"><g><path d="M 19.75 0.609375 C 14.25 0.609375 10.378906 -0.425781 8.140625 -2.5 C 5.910156 -4.570312 4.796875 -7.367188 4.796875 -10.890625 C 4.796875 -12.960938 5.097656 -14.617188 5.703125 -15.859375 C 6.316406 -17.097656 7.085938 -18.007812 8.015625 -18.59375 C 8.941406 -19.175781 9.898438 -19.5625 10.890625 -19.75 L 10.890625 -20.015625 C 9.941406 -20.285156 8.984375 -20.734375 8.015625 -21.359375 C 7.046875 -21.992188 6.234375 -22.875 5.578125 -24 C 4.921875 -25.132812 4.59375 -26.554688 4.59375 -28.265625 C 4.59375 -29.796875 4.953125 -31.269531 5.671875 -32.6875 C 6.398438 -34.113281 7.570312 -35.273438 9.1875 -36.171875 C 10.8125 -37.078125 12.957031 -37.53125 15.625 -37.53125 C 16.707031 -37.53125 17.832031 -37.453125 19 -37.296875 C 20.175781 -37.140625 21.078125 -36.878906 21.703125 -36.515625 L 20.625 -31.84375 C 20.125 -32.03125 19.476562 -32.203125 18.6875 -32.359375 C 17.90625 -32.515625 17.085938 -32.59375 16.234375 -32.59375 C 14.335938 -32.59375 12.9375 -32.148438 12.03125 -31.265625 C 11.132812 -30.390625 10.6875 -29.234375 10.6875 -27.796875 C 10.6875 -26.210938 11.078125 -25.015625 11.859375 -24.203125 C 12.648438 -23.398438 13.664062 -22.847656 14.90625 -22.546875 C 16.144531 -22.253906 17.441406 -22.109375 18.796875 -22.109375 L 20.078125 -22.109375 L 20.078125 -17.71875 L 18.796875 -17.71875 C 16.097656 -17.71875 14.101562 -17.222656 12.8125 -16.234375 C 11.53125 -15.242188 10.890625 -13.640625 10.890625 -11.421875 C 10.890625 -10.117188 11.144531 -8.925781 11.65625 -7.84375 C 12.175781 -6.757812 13.078125 -5.898438 14.359375 -5.265625 C 15.648438 -4.640625 17.445312 -4.328125 19.75 -4.328125 C 23.175781 -4.328125 25.519531 -5.023438 26.78125 -6.421875 C 28.039062 -7.816406 28.671875 -9.78125 28.671875 -12.3125 L 28.671875 -37.0625 L 34.6875 -37.0625 L 34.6875 -12.71875 C 34.6875 -7.976562 33.476562 -4.570312 31.0625 -2.5 C 28.65625 -0.425781 24.882812 0.609375 19.75 0.609375 Z M 19.75 0.609375 "/></g></g></g><g fill="#212121" fill-opacity="0.4"><g transform="translate(121.509711, 289.100107)"><g><path d="M 3.265625 0.15625 C 2.984375 0.15625 2.707031 0.109375 2.4375 0.015625 C 2.175781 -0.078125 1.957031 -0.242188 1.78125 -0.484375 C 1.613281 -0.734375 1.53125 -1.078125 1.53125 -1.515625 L 1.53125 -8.734375 L 2.953125 -8.734375 L 2.953125 -1.6875 C 2.953125 -1.445312 3 -1.269531 3.09375 -1.15625 C 3.195312 -1.050781 3.375 -1 3.625 -1 C 3.71875 -1 3.816406 -1.007812 3.921875 -1.03125 C 4.023438 -1.050781 4.125 -1.078125 4.21875 -1.109375 L 4.421875 -0.078125 C 4.210938 0.015625 4.007812 0.078125 3.8125 0.109375 C 3.625 0.140625 3.441406 0.15625 3.265625 0.15625 Z M 3.265625 0.15625 "/></g></g></g><g fill="#212121" fill-opacity="0.4"><g transform="translate(130.196457, 289.100107)"><g><path d="M 1.34375 0 L 1.34375 -8.734375 L 2.328125 -8.734375 L 2.578125 -7.34375 L 2.640625 -7.34375 C 2.828125 -7.820312 3.15625 -8.195312 3.625 -8.46875 C 4.101562 -8.75 4.6875 -8.890625 5.375 -8.890625 C 6.320312 -8.890625 7.066406 -8.644531 7.609375 -8.15625 C 8.148438 -7.664062 8.421875 -6.890625 8.421875 -5.828125 L 8.421875 0 L 7 0 L 7 -5.75 C 7 -7.050781 6.363281 -7.703125 5.09375 -7.703125 C 4.59375 -7.703125 4.164062 -7.582031 3.8125 -7.34375 C 3.46875 -7.113281 3.203125 -6.796875 3.015625 -6.390625 C 2.835938 -5.992188 2.75 -5.546875 2.75 -5.046875 L 2.75 0 Z M 1.34375 0 "/></g></g></g><g fill="#212121" fill-opacity="0.4"><g transform="translate(139.854583, 289.100107)"><g><path d="M -8.1875 -10.125 L -8.1875 -10.734375 L -7.03125 -11.25 L -2.734375 -11.25 L -2.734375 -12.546875 L -1.40625 -12.546875 L -1.40625 -10.734375 L -1.421875 -10.734375 L -1.421875 -10.125 Z M -8.1875 -10.125 "/></g></g><g transform="translate(139.854583, 289.100107)"><g><path d="M -2.75 -13.484375 L -2.75 -16.078125 L -1.40625 -16.078125 L -1.40625 -13.484375 Z M -2.75 -13.484375 "/></g></g></g><g fill="#212121" fill-opacity="0.4"><g transform="translate(143.887578, 289.100107)"><g><path d="M 4.65625 0.140625 C 3.351562 0.140625 2.4375 -0.101562 1.90625 -0.59375 C 1.382812 -1.082031 1.125 -1.738281 1.125 -2.5625 C 1.125 -3.050781 1.195312 -3.441406 1.34375 -3.734375 C 1.488281 -4.023438 1.671875 -4.238281 1.890625 -4.375 C 2.109375 -4.519531 2.332031 -4.613281 2.5625 -4.65625 L 2.5625 -4.71875 C 2.34375 -4.78125 2.117188 -4.882812 1.890625 -5.03125 C 1.660156 -5.1875 1.46875 -5.394531 1.3125 -5.65625 C 1.15625 -5.925781 1.078125 -6.257812 1.078125 -6.65625 C 1.078125 -7.019531 1.160156 -7.367188 1.328125 -7.703125 C 1.503906 -8.035156 1.78125 -8.304688 2.15625 -8.515625 C 2.539062 -8.734375 3.050781 -8.84375 3.6875 -8.84375 C 3.9375 -8.84375 4.195312 -8.820312 4.46875 -8.78125 C 4.75 -8.75 4.960938 -8.691406 5.109375 -8.609375 L 4.859375 -7.5 C 4.742188 -7.550781 4.59375 -7.59375 4.40625 -7.625 C 4.21875 -7.664062 4.023438 -7.6875 3.828125 -7.6875 C 3.378906 -7.6875 3.046875 -7.582031 2.828125 -7.375 C 2.617188 -7.164062 2.515625 -6.890625 2.515625 -6.546875 C 2.515625 -6.179688 2.609375 -5.898438 2.796875 -5.703125 C 2.984375 -5.515625 3.222656 -5.382812 3.515625 -5.3125 C 3.804688 -5.25 4.113281 -5.21875 4.4375 -5.21875 L 4.734375 -5.21875 L 4.734375 -4.171875 L 4.4375 -4.171875 C 3.789062 -4.171875 3.316406 -4.050781 3.015625 -3.8125 C 2.710938 -3.582031 2.5625 -3.207031 2.5625 -2.6875 C 2.5625 -2.382812 2.625 -2.101562 2.75 -1.84375 C 2.875 -1.59375 3.085938 -1.390625 3.390625 -1.234375 C 3.691406 -1.085938 4.113281 -1.015625 4.65625 -1.015625 C 5.457031 -1.015625 6.003906 -1.179688 6.296875 -1.515625 C 6.597656 -1.847656 6.75 -2.3125 6.75 -2.90625 L 6.75 -8.734375 L 8.171875 -8.734375 L 8.171875 -3 C 8.171875 -1.882812 7.882812 -1.082031 7.3125 -0.59375 C 6.75 -0.101562 5.863281 0.140625 4.65625 0.140625 Z M 4.65625 0.140625 "/></g></g></g><g fill="#212121" fill-opacity="0.4"><g transform="translate(157.339644, 289.100107)"><g><path d="M 3.046875 0.15625 C 2.628906 0.15625 2.226562 0.113281 1.84375 0.03125 C 1.457031 -0.0507812 1.046875 -0.210938 0.609375 -0.453125 L 1.046875 -1.53125 C 1.285156 -1.394531 1.550781 -1.273438 1.84375 -1.171875 C 2.144531 -1.066406 2.492188 -1.015625 2.890625 -1.015625 C 3.671875 -1.015625 4.28125 -1.300781 4.71875 -1.875 C 5.164062 -2.445312 5.390625 -3.289062 5.390625 -4.40625 C 5.390625 -5.476562 5.160156 -6.296875 4.703125 -6.859375 C 4.253906 -7.429688 3.5625 -7.71875 2.625 -7.71875 C 2.289062 -7.71875 1.945312 -7.675781 1.59375 -7.59375 C 1.238281 -7.519531 0.929688 -7.410156 0.671875 -7.265625 L 0.671875 -8.46875 C 0.960938 -8.625 1.296875 -8.734375 1.671875 -8.796875 C 2.046875 -8.859375 2.421875 -8.890625 2.796875 -8.890625 C 3.742188 -8.890625 4.515625 -8.703125 5.109375 -8.328125 C 5.710938 -7.953125 6.148438 -7.425781 6.421875 -6.75 C 6.703125 -6.070312 6.84375 -5.289062 6.84375 -4.40625 C 6.84375 -3 6.523438 -1.882812 5.890625 -1.0625 C 5.253906 -0.25 4.304688 0.15625 3.046875 0.15625 Z M 3.046875 0.15625 "/></g></g></g><g fill="#212121" fill-opacity="0.4"><g transform="translate(169.166077, 289.100107)"><g><path d="M 3.484375 0.15625 C 3.203125 0.15625 2.925781 0.109375 2.65625 0.015625 C 2.394531 -0.078125 2.175781 -0.242188 2 -0.484375 C 1.832031 -0.734375 1.75 -1.078125 1.75 -1.515625 L 1.75 -10 C 1.75 -10.59375 1.832031 -11.03125 2 -11.3125 C 2.164062 -11.601562 2.359375 -11.828125 2.578125 -11.984375 L 2.5625 -12.046875 L -0.203125 -12.046875 L 0.15625 -13.171875 L 4.65625 -13.171875 L 4.65625 -12.046875 C 4.25 -12.046875 3.898438 -11.914062 3.609375 -11.65625 C 3.316406 -11.40625 3.171875 -10.941406 3.171875 -10.265625 L 3.171875 -1.6875 C 3.171875 -1.445312 3.21875 -1.269531 3.3125 -1.15625 C 3.414062 -1.050781 3.59375 -1 3.84375 -1 C 3.9375 -1 4.035156 -1.007812 4.140625 -1.03125 C 4.242188 -1.050781 4.347656 -1.078125 4.453125 -1.109375 L 4.640625 -0.078125 C 4.429688 0.015625 4.234375 0.078125 4.046875 0.109375 C 3.859375 0.140625 3.671875 0.15625 3.484375 0.15625 Z M 3.484375 0.15625 "/></g></g></g><g fill="#212121" fill-opacity="0.4"><g transform="translate(177.996263, 289.100107)"><g><path d="M 4.796875 0.15625 C 3.546875 0.15625 2.648438 -0.128906 2.109375 -0.703125 C 1.566406 -1.273438 1.296875 -2.09375 1.296875 -3.15625 L 1.296875 -8.734375 L 2.703125 -8.734375 L 2.703125 -3.140625 C 2.703125 -1.722656 3.398438 -1.015625 4.796875 -1.015625 C 5.515625 -1.015625 6.046875 -1.191406 6.390625 -1.546875 C 6.742188 -1.898438 6.921875 -2.429688 6.921875 -3.140625 L 6.921875 -11.875 L 8.328125 -11.875 L 8.328125 -3.15625 C 8.328125 -2.09375 8.050781 -1.273438 7.5 -0.703125 C 6.957031 -0.128906 6.054688 0.15625 4.796875 0.15625 Z M 4.796875 0.15625 "/></g></g></g><g fill="#212121" fill-opacity="0.4"><g transform="translate(191.623641, 289.100107)"><g><path d="M 4.265625 0.15625 C 3.421875 0.15625 2.753906 -0.0390625 2.265625 -0.4375 C 1.785156 -0.832031 1.445312 -1.367188 1.25 -2.046875 C 1.050781 -2.722656 0.953125 -3.472656 0.953125 -4.296875 C 0.953125 -5.503906 1.113281 -6.4375 1.4375 -7.09375 C 1.769531 -7.757812 2.226562 -8.222656 2.8125 -8.484375 C 3.40625 -8.753906 4.09375 -8.890625 4.875 -8.890625 C 6.15625 -8.890625 7.082031 -8.613281 7.65625 -8.0625 C 8.238281 -7.507812 8.53125 -6.757812 8.53125 -5.8125 L 8.53125 0 L 7.125 0 L 7.125 -5.6875 C 7.125 -6.332031 6.957031 -6.832031 6.625 -7.1875 C 6.300781 -7.539062 5.734375 -7.71875 4.921875 -7.71875 C 4.421875 -7.71875 3.976562 -7.625 3.59375 -7.4375 C 3.21875 -7.257812 2.921875 -6.925781 2.703125 -6.4375 C 2.484375 -5.945312 2.375 -5.226562 2.375 -4.28125 C 2.375 -3.664062 2.429688 -3.109375 2.546875 -2.609375 C 2.671875 -2.117188 2.890625 -1.726562 3.203125 -1.4375 C 3.515625 -1.15625 3.945312 -1.015625 4.5 -1.015625 C 4.65625 -1.015625 4.800781 -1.023438 4.9375 -1.046875 C 5.070312 -1.066406 5.207031 -1.097656 5.34375 -1.140625 L 5.484375 -0.046875 C 5.316406 0.0234375 5.125 0.078125 4.90625 0.109375 C 4.6875 0.140625 4.472656 0.15625 4.265625 0.15625 Z M 4.265625 0.15625 "/></g></g></g><g fill="#212121" fill-opacity="0.4"><g transform="translate(201.441137, 289.100107)"><g><path d="M -5.859375 -10.125 L -5.859375 -10.828125 C -5.648438 -10.867188 -5.429688 -10.925781 -5.203125 -11 C -4.984375 -11.082031 -4.800781 -11.1875 -4.65625 -11.3125 C -4.507812 -11.4375 -4.4375 -11.601562 -4.4375 -11.8125 C -4.4375 -11.9375 -4.472656 -12.039062 -4.546875 -12.125 C -4.628906 -12.21875 -4.753906 -12.265625 -4.921875 -12.265625 C -5.035156 -12.265625 -5.144531 -12.242188 -5.25 -12.203125 C -5.363281 -12.160156 -5.460938 -12.125 -5.546875 -12.09375 L -5.859375 -12.96875 C -5.648438 -13.144531 -5.414062 -13.257812 -5.15625 -13.3125 C -4.894531 -13.363281 -4.6875 -13.390625 -4.53125 -13.390625 C -4.101562 -13.390625 -3.769531 -13.269531 -3.53125 -13.03125 C -3.289062 -12.800781 -3.171875 -12.503906 -3.171875 -12.140625 C -3.171875 -11.960938 -3.203125 -11.796875 -3.265625 -11.640625 C -3.328125 -11.484375 -3.40625 -11.347656 -3.5 -11.234375 L -0.921875 -11.234375 L -0.921875 -10.125 Z M -5.859375 -10.125 "/></g></g></g><g fill="#212121" fill-opacity="0.4"><g transform="translate(205.42633, 289.100107)"><g><path d="M 3.046875 0.15625 C 2.628906 0.15625 2.226562 0.113281 1.84375 0.03125 C 1.457031 -0.0507812 1.046875 -0.210938 0.609375 -0.453125 L 1.046875 -1.53125 C 1.285156 -1.394531 1.550781 -1.273438 1.84375 -1.171875 C 2.144531 -1.066406 2.492188 -1.015625 2.890625 -1.015625 C 3.671875 -1.015625 4.28125 -1.300781 4.71875 -1.875 C 5.164062 -2.445312 5.390625 -3.289062 5.390625 -4.40625 C 5.390625 -5.476562 5.160156 -6.296875 4.703125 -6.859375 C 4.253906 -7.429688 3.5625 -7.71875 2.625 -7.71875 C 2.289062 -7.71875 1.945312 -7.675781 1.59375 -7.59375 C 1.238281 -7.519531 0.929688 -7.410156 0.671875 -7.265625 L 0.671875 -8.46875 C 0.960938 -8.625 1.296875 -8.734375 1.671875 -8.796875 C 2.046875 -8.859375 2.421875 -8.890625 2.796875 -8.890625 C 3.742188 -8.890625 4.515625 -8.703125 5.109375 -8.328125 C 5.710938 -7.953125 6.148438 -7.425781 6.421875 -6.75 C 6.703125 -6.070312 6.84375 -5.289062 6.84375 -4.40625 C 6.84375 -3 6.523438 -1.882812 5.890625 -1.0625 C 5.253906 -0.25 4.304688 0.15625 3.046875 0.15625 Z M 3.046875 0.15625 "/></g></g></g><g fill="#212121" fill-opacity="0.4"><g transform="translate(217.252763, 289.100107)"><g><path d="M 4.65625 0.140625 C 3.351562 0.140625 2.4375 -0.101562 1.90625 -0.59375 C 1.382812 -1.082031 1.125 -1.738281 1.125 -2.5625 C 1.125 -3.050781 1.195312 -3.441406 1.34375 -3.734375 C 1.488281 -4.023438 1.671875 -4.238281 1.890625 -4.375 C 2.109375 -4.519531 2.332031 -4.613281 2.5625 -4.65625 L 2.5625 -4.71875 C 2.34375 -4.78125 2.117188 -4.882812 1.890625 -5.03125 C 1.660156 -5.1875 1.46875 -5.394531 1.3125 -5.65625 C 1.15625 -5.925781 1.078125 -6.257812 1.078125 -6.65625 C 1.078125 -7.019531 1.160156 -7.367188 1.328125 -7.703125 C 1.503906 -8.035156 1.78125 -8.304688 2.15625 -8.515625 C 2.539062 -8.734375 3.050781 -8.84375 3.6875 -8.84375 C 3.9375 -8.84375 4.195312 -8.820312 4.46875 -8.78125 C 4.75 -8.75 4.960938 -8.691406 5.109375 -8.609375 L 4.859375 -7.5 C 4.742188 -7.550781 4.59375 -7.59375 4.40625 -7.625 C 4.21875 -7.664062 4.023438 -7.6875 3.828125 -7.6875 C 3.378906 -7.6875 3.046875 -7.582031 2.828125 -7.375 C 2.617188 -7.164062 2.515625 -6.890625 2.515625 -6.546875 C 2.515625 -6.179688 2.609375 -5.898438 2.796875 -5.703125 C 2.984375 -5.515625 3.222656 -5.382812 3.515625 -5.3125 C 3.804688 -5.25 4.113281 -5.21875 4.4375 -5.21875 L 4.734375 -5.21875 L 4.734375 -4.171875 L 4.4375 -4.171875 C 3.789062 -4.171875 3.316406 -4.050781 3.015625 -3.8125 C 2.710938 -3.582031 2.5625 -3.207031 2.5625 -2.6875 C 2.5625 -2.382812 2.625 -2.101562 2.75 -1.84375 C 2.875 -1.59375 3.085938 -1.390625 3.390625 -1.234375 C 3.691406 -1.085938 4.113281 -1.015625 4.65625 -1.015625 C 5.457031 -1.015625 6.003906 -1.179688 6.296875 -1.515625 C 6.597656 -1.847656 6.75 -2.3125 6.75 -2.90625 L 6.75 -8.734375 L 8.171875 -8.734375 L 8.171875 -3 C 8.171875 -1.882812 7.882812 -1.082031 7.3125 -0.59375 C 6.75 -0.101562 5.863281 0.140625 4.65625 0.140625 Z M 4.65625 0.140625 "/></g></g></g><g fill="#212121" fill-opacity="0.4"><g transform="translate(230.704834, 289.100107)"><g><path d="M 1.21875 0 L 1.21875 -3.03125 C 1.21875 -3.695312 1.363281 -4.179688 1.65625 -4.484375 C 1.957031 -4.785156 2.335938 -4.992188 2.796875 -5.109375 L 2.8125 -5.15625 L 1.046875 -5.828125 L 1.046875 -6.359375 C 1.046875 -6.796875 1.1875 -7.207031 1.46875 -7.59375 C 1.757812 -7.976562 2.171875 -8.289062 2.703125 -8.53125 C 3.234375 -8.769531 3.878906 -8.890625 4.640625 -8.890625 C 5.285156 -8.890625 5.882812 -8.785156 6.4375 -8.578125 C 6.988281 -8.367188 7.429688 -8.046875 7.765625 -7.609375 C 8.097656 -7.171875 8.265625 -6.59375 8.265625 -5.875 L 8.265625 0 L 6.859375 0 L 6.859375 -5.734375 C 6.859375 -6.453125 6.640625 -6.960938 6.203125 -7.265625 C 5.765625 -7.566406 5.238281 -7.71875 4.625 -7.71875 C 3.96875 -7.71875 3.445312 -7.582031 3.0625 -7.3125 C 2.6875 -7.039062 2.5 -6.695312 2.5 -6.28125 L 4.21875 -5.421875 L 4.09375 -4.65625 C 3.695312 -4.65625 3.351562 -4.523438 3.0625 -4.265625 C 2.769531 -4.003906 2.625 -3.59375 2.625 -3.03125 L 2.625 0 Z M 1.21875 0 "/></g></g></g><g fill="#212121" fill-opacity="0.4"><g transform="translate(240.235461, 289.100107)"><g><path d="M -3.4375 -10.125 C -4.113281 -10.125 -4.585938 -10.257812 -4.859375 -10.53125 C -5.140625 -10.800781 -5.28125 -11.101562 -5.28125 -11.4375 C -5.28125 -11.601562 -5.253906 -11.773438 -5.203125 -11.953125 C -5.148438 -12.140625 -5.085938 -12.296875 -5.015625 -12.421875 L -3.828125 -12.203125 C -3.890625 -12.078125 -3.921875 -11.914062 -3.921875 -11.71875 C -3.921875 -11.570312 -3.878906 -11.445312 -3.796875 -11.34375 C -3.710938 -11.25 -3.566406 -11.203125 -3.359375 -11.203125 L 0.671875 -11.203125 L 0.671875 -10.125 Z M -3.4375 -10.125 "/></g></g></g><g fill="#212121" fill-opacity="0.4"><g transform="translate(244.252509, 289.100107)"><g><path d="M 4.296875 0.15625 C 3.367188 0.15625 2.632812 -0.0859375 2.09375 -0.578125 C 1.5625 -1.066406 1.296875 -1.84375 1.296875 -2.90625 L 1.296875 -8.734375 L 2.703125 -8.734375 L 2.703125 -2.984375 C 2.703125 -1.679688 3.335938 -1.03125 4.609375 -1.03125 C 5.347656 -1.03125 5.921875 -1.269531 6.328125 -1.75 C 6.742188 -2.226562 6.953125 -2.875 6.953125 -3.6875 L 6.953125 -8.734375 L 8.375 -8.734375 L 8.375 0 L 7.1875 0 L 7.125 -1.296875 L 7.046875 -1.296875 C 6.847656 -0.859375 6.515625 -0.503906 6.046875 -0.234375 C 5.578125 0.0234375 4.992188 0.15625 4.296875 0.15625 Z M 4.296875 0.15625 "/></g></g></g><g fill="#212121" fill-opacity="1"><g transform="translate(121.242008, 288.832392)"><g><path d="M 3.265625 0.15625 C 2.984375 0.15625 2.707031 0.109375 2.4375 0.015625 C 2.175781 -0.078125 1.957031 -0.242188 1.78125 -0.484375 C 1.613281 -0.734375 1.53125 -1.078125 1.53125 -1.515625 L 1.53125 -8.734375 L 2.953125 -8.734375 L 2.953125 -1.6875 C 2.953125 -1.445312 3 -1.269531 3.09375 -1.15625 C 3.195312 -1.050781 3.375 -1 3.625 -1 C 3.71875 -1 3.816406 -1.007812 3.921875 -1.03125 C 4.023438 -1.050781 4.125 -1.078125 4.21875 -1.109375 L 4.421875 -0.078125 C 4.210938 0.015625 4.007812 0.078125 3.8125 0.109375 C 3.625 0.140625 3.441406 0.15625 3.265625 0.15625 Z M 3.265625 0.15625 "/></g></g></g><g fill="#212121" fill-opacity="1"><g transform="translate(129.928753, 288.832392)"><g><path d="M 1.34375 0 L 1.34375 -8.734375 L 2.328125 -8.734375 L 2.578125 -7.34375 L 2.640625 -7.34375 C 2.828125 -7.820312 3.15625 -8.195312 3.625 -8.46875 C 4.101562 -8.75 4.6875 -8.890625 5.375 -8.890625 C 6.320312 -8.890625 7.066406 -8.644531 7.609375 -8.15625 C 8.148438 -7.664062 8.421875 -6.890625 8.421875 -5.828125 L 8.421875 0 L 7 0 L 7 -5.75 C 7 -7.050781 6.363281 -7.703125 5.09375 -7.703125 C 4.59375 -7.703125 4.164062 -7.582031 3.8125 -7.34375 C 3.46875 -7.113281 3.203125 -6.796875 3.015625 -6.390625 C 2.835938 -5.992188 2.75 -5.546875 2.75 -5.046875 L 2.75 0 Z M 1.34375 0 "/></g></g></g><g fill="#212121" fill-opacity="1"><g transform="translate(139.58688, 288.832392)"><g><path d="M -8.1875 -10.125 L -8.1875 -10.734375 L -7.03125 -11.25 L -2.734375 -11.25 L -2.734375 -12.546875 L -1.40625 -12.546875 L -1.40625 -10.734375 L -1.421875 -10.734375 L -1.421875 -10.125 Z M -8.1875 -10.125 "/></g></g><g transform="translate(139.58688, 288.832392)"><g><path d="M -2.75 -13.484375 L -2.75 -16.078125 L -1.40625 -16.078125 L -1.40625 -13.484375 Z M -2.75 -13.484375 "/></g></g></g><g fill="#212121" fill-opacity="1"><g transform="translate(143.619875, 288.832392)"><g><path d="M 4.65625 0.140625 C 3.351562 0.140625 2.4375 -0.101562 1.90625 -0.59375 C 1.382812 -1.082031 1.125 -1.738281 1.125 -2.5625 C 1.125 -3.050781 1.195312 -3.441406 1.34375 -3.734375 C 1.488281 -4.023438 1.671875 -4.238281 1.890625 -4.375 C 2.109375 -4.519531 2.332031 -4.613281 2.5625 -4.65625 L 2.5625 -4.71875 C 2.34375 -4.78125 2.117188 -4.882812 1.890625 -5.03125 C 1.660156 -5.1875 1.46875 -5.394531 1.3125 -5.65625 C 1.15625 -5.925781 1.078125 -6.257812 1.078125 -6.65625 C 1.078125 -7.019531 1.160156 -7.367188 1.328125 -7.703125 C 1.503906 -8.035156 1.78125 -8.304688 2.15625 -8.515625 C 2.539062 -8.734375 3.050781 -8.84375 3.6875 -8.84375 C 3.9375 -8.84375 4.195312 -8.820312 4.46875 -8.78125 C 4.75 -8.75 4.960938 -8.691406 5.109375 -8.609375 L 4.859375 -7.5 C 4.742188 -7.550781 4.59375 -7.59375 4.40625 -7.625 C 4.21875 -7.664062 4.023438 -7.6875 3.828125 -7.6875 C 3.378906 -7.6875 3.046875 -7.582031 2.828125 -7.375 C 2.617188 -7.164062 2.515625 -6.890625 2.515625 -6.546875 C 2.515625 -6.179688 2.609375 -5.898438 2.796875 -5.703125 C 2.984375 -5.515625 3.222656 -5.382812 3.515625 -5.3125 C 3.804688 -5.25 4.113281 -5.21875 4.4375 -5.21875 L 4.734375 -5.21875 L 4.734375 -4.171875 L 4.4375 -4.171875 C 3.789062 -4.171875 3.316406 -4.050781 3.015625 -3.8125 C 2.710938 -3.582031 2.5625 -3.207031 2.5625 -2.6875 C 2.5625 -2.382812 2.625 -2.101562 2.75 -1.84375 C 2.875 -1.59375 3.085938 -1.390625 3.390625 -1.234375 C 3.691406 -1.085938 4.113281 -1.015625 4.65625 -1.015625 C 5.457031 -1.015625 6.003906 -1.179688 6.296875 -1.515625 C 6.597656 -1.847656 6.75 -2.3125 6.75 -2.90625 L 6.75 -8.734375 L 8.171875 -8.734375 L 8.171875 -3 C 8.171875 -1.882812 7.882812 -1.082031 7.3125 -0.59375 C 6.75 -0.101562 5.863281 0.140625 4.65625 0.140625 Z M 4.65625 0.140625 "/></g></g></g><g fill="#212121" fill-opacity="1"><g transform="translate(157.071941, 288.832392)"><g><path d="M 3.046875 0.15625 C 2.628906 0.15625 2.226562 0.113281 1.84375 0.03125 C 1.457031 -0.0507812 1.046875 -0.210938 0.609375 -0.453125 L 1.046875 -1.53125 C 1.285156 -1.394531 1.550781 -1.273438 1.84375 -1.171875 C 2.144531 -1.066406 2.492188 -1.015625 2.890625 -1.015625 C 3.671875 -1.015625 4.28125 -1.300781 4.71875 -1.875 C 5.164062 -2.445312 5.390625 -3.289062 5.390625 -4.40625 C 5.390625 -5.476562 5.160156 -6.296875 4.703125 -6.859375 C 4.253906 -7.429688 3.5625 -7.71875 2.625 -7.71875 C 2.289062 -7.71875 1.945312 -7.675781 1.59375 -7.59375 C 1.238281 -7.519531 0.929688 -7.410156 0.671875 -7.265625 L 0.671875 -8.46875 C 0.960938 -8.625 1.296875 -8.734375 1.671875 -8.796875 C 2.046875 -8.859375 2.421875 -8.890625 2.796875 -8.890625 C 3.742188 -8.890625 4.515625 -8.703125 5.109375 -8.328125 C 5.710938 -7.953125 6.148438 -7.425781 6.421875 -6.75 C 6.703125 -6.070312 6.84375 -5.289062 6.84375 -4.40625 C 6.84375 -3 6.523438 -1.882812 5.890625 -1.0625 C 5.253906 -0.25 4.304688 0.15625 3.046875 0.15625 Z M 3.046875 0.15625 "/></g></g></g><g fill="#212121" fill-opacity="1"><g transform="translate(168.898374, 288.832392)"><g><path d="M 3.484375 0.15625 C 3.203125 0.15625 2.925781 0.109375 2.65625 0.015625 C 2.394531 -0.078125 2.175781 -0.242188 2 -0.484375 C 1.832031 -0.734375 1.75 -1.078125 1.75 -1.515625 L 1.75 -10 C 1.75 -10.59375 1.832031 -11.03125 2 -11.3125 C 2.164062 -11.601562 2.359375 -11.828125 2.578125 -11.984375 L 2.5625 -12.046875 L -0.203125 -12.046875 L 0.15625 -13.171875 L 4.65625 -13.171875 L 4.65625 -12.046875 C 4.25 -12.046875 3.898438 -11.914062 3.609375 -11.65625 C 3.316406 -11.40625 3.171875 -10.941406 3.171875 -10.265625 L 3.171875 -1.6875 C 3.171875 -1.445312 3.21875 -1.269531 3.3125 -1.15625 C 3.414062 -1.050781 3.59375 -1 3.84375 -1 C 3.9375 -1 4.035156 -1.007812 4.140625 -1.03125 C 4.242188 -1.050781 4.347656 -1.078125 4.453125 -1.109375 L 4.640625 -0.078125 C 4.429688 0.015625 4.234375 0.078125 4.046875 0.109375 C 3.859375 0.140625 3.671875 0.15625 3.484375 0.15625 Z M 3.484375 0.15625 "/></g></g></g><g fill="#212121" fill-opacity="1"><g transform="translate(177.72856, 288.832392)"><g><path d="M 4.796875 0.15625 C 3.546875 0.15625 2.648438 -0.128906 2.109375 -0.703125 C 1.566406 -1.273438 1.296875 -2.09375 1.296875 -3.15625 L 1.296875 -8.734375 L 2.703125 -8.734375 L 2.703125 -3.140625 C 2.703125 -1.722656 3.398438 -1.015625 4.796875 -1.015625 C 5.515625 -1.015625 6.046875 -1.191406 6.390625 -1.546875 C 6.742188 -1.898438 6.921875 -2.429688 6.921875 -3.140625 L 6.921875 -11.875 L 8.328125 -11.875 L 8.328125 -3.15625 C 8.328125 -2.09375 8.050781 -1.273438 7.5 -0.703125 C 6.957031 -0.128906 6.054688 0.15625 4.796875 0.15625 Z M 4.796875 0.15625 "/></g></g></g><g fill="#212121" fill-opacity="1"><g transform="translate(191.355937, 288.832392)"><g><path d="M 4.265625 0.15625 C 3.421875 0.15625 2.753906 -0.0390625 2.265625 -0.4375 C 1.785156 -0.832031 1.445312 -1.367188 1.25 -2.046875 C 1.050781 -2.722656 0.953125 -3.472656 0.953125 -4.296875 C 0.953125 -5.503906 1.113281 -6.4375 1.4375 -7.09375 C 1.769531 -7.757812 2.226562 -8.222656 2.8125 -8.484375 C 3.40625 -8.753906 4.09375 -8.890625 4.875 -8.890625 C 6.15625 -8.890625 7.082031 -8.613281 7.65625 -8.0625 C 8.238281 -7.507812 8.53125 -6.757812 8.53125 -5.8125 L 8.53125 0 L 7.125 0 L 7.125 -5.6875 C 7.125 -6.332031 6.957031 -6.832031 6.625 -7.1875 C 6.300781 -7.539062 5.734375 -7.71875 4.921875 -7.71875 C 4.421875 -7.71875 3.976562 -7.625 3.59375 -7.4375 C 3.21875 -7.257812 2.921875 -6.925781 2.703125 -6.4375 C 2.484375 -5.945312 2.375 -5.226562 2.375 -4.28125 C 2.375 -3.664062 2.429688 -3.109375 2.546875 -2.609375 C 2.671875 -2.117188 2.890625 -1.726562 3.203125 -1.4375 C 3.515625 -1.15625 3.945312 -1.015625 4.5 -1.015625 C 4.65625 -1.015625 4.800781 -1.023438 4.9375 -1.046875 C 5.070312 -1.066406 5.207031 -1.097656 5.34375 -1.140625 L 5.484375 -0.046875 C 5.316406 0.0234375 5.125 0.078125 4.90625 0.109375 C 4.6875 0.140625 4.472656 0.15625 4.265625 0.15625 Z M 4.265625 0.15625 "/></g></g></g><g fill="#212121" fill-opacity="1"><g transform="translate(201.173434, 288.832392)"><g><path d="M -5.859375 -10.125 L -5.859375 -10.828125 C -5.648438 -10.867188 -5.429688 -10.925781 -5.203125 -11 C -4.984375 -11.082031 -4.800781 -11.1875 -4.65625 -11.3125 C -4.507812 -11.4375 -4.4375 -11.601562 -4.4375 -11.8125 C -4.4375 -11.9375 -4.472656 -12.039062 -4.546875 -12.125 C -4.628906 -12.21875 -4.753906 -12.265625 -4.921875 -12.265625 C -5.035156 -12.265625 -5.144531 -12.242188 -5.25 -12.203125 C -5.363281 -12.160156 -5.460938 -12.125 -5.546875 -12.09375 L -5.859375 -12.96875 C -5.648438 -13.144531 -5.414062 -13.257812 -5.15625 -13.3125 C -4.894531 -13.363281 -4.6875 -13.390625 -4.53125 -13.390625 C -4.101562 -13.390625 -3.769531 -13.269531 -3.53125 -13.03125 C -3.289062 -12.800781 -3.171875 -12.503906 -3.171875 -12.140625 C -3.171875 -11.960938 -3.203125 -11.796875 -3.265625 -11.640625 C -3.328125 -11.484375 -3.40625 -11.347656 -3.5 -11.234375 L -0.921875 -11.234375 L -0.921875 -10.125 Z M -5.859375 -10.125 "/></g></g></g><g fill="#212121" fill-opacity="1"><g transform="translate(205.158627, 288.832392)"><g><path d="M 3.046875 0.15625 C 2.628906 0.15625 2.226562 0.113281 1.84375 0.03125 C 1.457031 -0.0507812 1.046875 -0.210938 0.609375 -0.453125 L 1.046875 -1.53125 C 1.285156 -1.394531 1.550781 -1.273438 1.84375 -1.171875 C 2.144531 -1.066406 2.492188 -1.015625 2.890625 -1.015625 C 3.671875 -1.015625 4.28125 -1.300781 4.71875 -1.875 C 5.164062 -2.445312 5.390625 -3.289062 5.390625 -4.40625 C 5.390625 -5.476562 5.160156 -6.296875 4.703125 -6.859375 C 4.253906 -7.429688 3.5625 -7.71875 2.625 -7.71875 C 2.289062 -7.71875 1.945312 -7.675781 1.59375 -7.59375 C 1.238281 -7.519531 0.929688 -7.410156 0.671875 -7.265625 L 0.671875 -8.46875 C 0.960938 -8.625 1.296875 -8.734375 1.671875 -8.796875 C 2.046875 -8.859375 2.421875 -8.890625 2.796875 -8.890625 C 3.742188 -8.890625 4.515625 -8.703125 5.109375 -8.328125 C 5.710938 -7.953125 6.148438 -7.425781 6.421875 -6.75 C 6.703125 -6.070312 6.84375 -5.289062 6.84375 -4.40625 C 6.84375 -3 6.523438 -1.882812 5.890625 -1.0625 C 5.253906 -0.25 4.304688 0.15625 3.046875 0.15625 Z M 3.046875 0.15625 "/></g></g></g><g fill="#212121" fill-opacity="1"><g transform="translate(216.985059, 288.832392)"><g><path d="M 4.65625 0.140625 C 3.351562 0.140625 2.4375 -0.101562 1.90625 -0.59375 C 1.382812 -1.082031 1.125 -1.738281 1.125 -2.5625 C 1.125 -3.050781 1.195312 -3.441406 1.34375 -3.734375 C 1.488281 -4.023438 1.671875 -4.238281 1.890625 -4.375 C 2.109375 -4.519531 2.332031 -4.613281 2.5625 -4.65625 L 2.5625 -4.71875 C 2.34375 -4.78125 2.117188 -4.882812 1.890625 -5.03125 C 1.660156 -5.1875 1.46875 -5.394531 1.3125 -5.65625 C 1.15625 -5.925781 1.078125 -6.257812 1.078125 -6.65625 C 1.078125 -7.019531 1.160156 -7.367188 1.328125 -7.703125 C 1.503906 -8.035156 1.78125 -8.304688 2.15625 -8.515625 C 2.539062 -8.734375 3.050781 -8.84375 3.6875 -8.84375 C 3.9375 -8.84375 4.195312 -8.820312 4.46875 -8.78125 C 4.75 -8.75 4.960938 -8.691406 5.109375 -8.609375 L 4.859375 -7.5 C 4.742188 -7.550781 4.59375 -7.59375 4.40625 -7.625 C 4.21875 -7.664062 4.023438 -7.6875 3.828125 -7.6875 C 3.378906 -7.6875 3.046875 -7.582031 2.828125 -7.375 C 2.617188 -7.164062 2.515625 -6.890625 2.515625 -6.546875 C 2.515625 -6.179688 2.609375 -5.898438 2.796875 -5.703125 C 2.984375 -5.515625 3.222656 -5.382812 3.515625 -5.3125 C 3.804688 -5.25 4.113281 -5.21875 4.4375 -5.21875 L 4.734375 -5.21875 L 4.734375 -4.171875 L 4.4375 -4.171875 C 3.789062 -4.171875 3.316406 -4.050781 3.015625 -3.8125 C 2.710938 -3.582031 2.5625 -3.207031 2.5625 -2.6875 C 2.5625 -2.382812 2.625 -2.101562 2.75 -1.84375 C 2.875 -1.59375 3.085938 -1.390625 3.390625 -1.234375 C 3.691406 -1.085938 4.113281 -1.015625 4.65625 -1.015625 C 5.457031 -1.015625 6.003906 -1.179688 6.296875 -1.515625 C 6.597656 -1.847656 6.75 -2.3125 6.75 -2.90625 L 6.75 -8.734375 L 8.171875 -8.734375 L 8.171875 -3 C 8.171875 -1.882812 7.882812 -1.082031 7.3125 -0.59375 C 6.75 -0.101562 5.863281 0.140625 4.65625 0.140625 Z M 4.65625 0.140625 "/></g></g></g><g fill="#212121" fill-opacity="1"><g transform="translate(230.437131, 288.832392)"><g><path d="M 1.21875 0 L 1.21875 -3.03125 C 1.21875 -3.695312 1.363281 -4.179688 1.65625 -4.484375 C 1.957031 -4.785156 2.335938 -4.992188 2.796875 -5.109375 L 2.8125 -5.15625 L 1.046875 -5.828125 L 1.046875 -6.359375 C 1.046875 -6.796875 1.1875 -7.207031 1.46875 -7.59375 C 1.757812 -7.976562 2.171875 -8.289062 2.703125 -8.53125 C 3.234375 -8.769531 3.878906 -8.890625 4.640625 -8.890625 C 5.285156 -8.890625 5.882812 -8.785156 6.4375 -8.578125 C 6.988281 -8.367188 7.429688 -8.046875 7.765625 -7.609375 C 8.097656 -7.171875 8.265625 -6.59375 8.265625 -5.875 L 8.265625 0 L 6.859375 0 L 6.859375 -5.734375 C 6.859375 -6.453125 6.640625 -6.960938 6.203125 -7.265625 C 5.765625 -7.566406 5.238281 -7.71875 4.625 -7.71875 C 3.96875 -7.71875 3.445312 -7.582031 3.0625 -7.3125 C 2.6875 -7.039062 2.5 -6.695312 2.5 -6.28125 L 4.21875 -5.421875 L 4.09375 -4.65625 C 3.695312 -4.65625 3.351562 -4.523438 3.0625 -4.265625 C 2.769531 -4.003906 2.625 -3.59375 2.625 -3.03125 L 2.625 0 Z M 1.21875 0 "/></g></g></g><g fill="#212121" fill-opacity="1"><g transform="translate(239.967758, 288.832392)"><g><path d="M -3.4375 -10.125 C -4.113281 -10.125 -4.585938 -10.257812 -4.859375 -10.53125 C -5.140625 -10.800781 -5.28125 -11.101562 -5.28125 -11.4375 C -5.28125 -11.601562 -5.253906 -11.773438 -5.203125 -11.953125 C -5.148438 -12.140625 -5.085938 -12.296875 -5.015625 -12.421875 L -3.828125 -12.203125 C -3.890625 -12.078125 -3.921875 -11.914062 -3.921875 -11.71875 C -3.921875 -11.570312 -3.878906 -11.445312 -3.796875 -11.34375 C -3.710938 -11.25 -3.566406 -11.203125 -3.359375 -11.203125 L 0.671875 -11.203125 L 0.671875 -10.125 Z M -3.4375 -10.125 "/></g></g></g><g fill="#212121" fill-opacity="1"><g transform="translate(243.984806, 288.832392)"><g><path d="M 4.296875 0.15625 C 3.367188 0.15625 2.632812 -0.0859375 2.09375 -0.578125 C 1.5625 -1.066406 1.296875 -1.84375 1.296875 -2.90625 L 1.296875 -8.734375 L 2.703125 -8.734375 L 2.703125 -2.984375 C 2.703125 -1.679688 3.335938 -1.03125 4.609375 -1.03125 C 5.347656 -1.03125 5.921875 -1.269531 6.328125 -1.75 C 6.742188 -2.226562 6.953125 -2.875 6.953125 -3.6875 L 6.953125 -8.734375 L 8.375 -8.734375 L 8.375 0 L 7.1875 0 L 7.125 -1.296875 L 7.046875 -1.296875 C 6.847656 -0.859375 6.515625 -0.503906 6.046875 -0.234375 C 5.578125 0.0234375 4.992188 0.15625 4.296875 0.15625 Z M 4.296875 0.15625 "/></g></g></g></svg>